<?xml version="1.0" encoding="UTF-8"?>
<svg version="1.1" xmlns="http://www.w3.org/2000/svg" width="512" height="512">
<path d="M0 0 C0.76050156 -0.00418442 1.52100311 -0.00836884 2.30455017 -0.01268005 C4.79979549 -0.01901128 7.29392896 0.00002866 9.7890625 0.0234375 C10.64285492 0.02775787 11.49664734 0.03207825 12.37631226 0.03652954 C36.82890614 0.18155458 60.56545041 2.90383868 84.4140625 8.3984375 C85.14222168 8.56456543 85.87038086 8.73069336 86.62060547 8.90185547 C118.65627634 16.37869147 150.09595384 30.72007546 174.23046875 53.390625 C176.427511 55.46155596 176.427511 55.46155596 178.984375 57.42578125 C181.17019355 59.20044101 182.91579643 60.94267344 184.7265625 63.0859375 C187.16168475 65.96212928 189.66087098 68.76119875 192.20703125 71.5390625 C196.38968605 76.24243975 199.95475599 81.21003827 203.4140625 86.4609375 C204.02000244 87.3777832 204.62594238 88.29462891 205.25024414 89.23925781 C210.30985127 97.01660065 214.66093322 104.91945937 218.4140625 113.3984375 C218.7136084 114.06762207 219.0131543 114.73680664 219.32177734 115.42626953 C230.30090897 140.22144213 236.38185984 166.5020655 239.4140625 193.3984375 C239.50977539 194.22843262 239.60548828 195.05842773 239.70410156 195.91357422 C240.73691575 206.29539279 240.65402358 216.72603405 240.6640625 227.1484375 C240.66706863 228.66529648 240.66706863 228.66529648 240.6701355 230.21279907 C240.67772654 245.91464676 239.92982399 261.34191427 238.16796875 276.94140625 C237.98137695 278.59849609 237.98137695 278.59849609 237.79101562 280.2890625 C237.55244462 282.25696429 237.28398739 284.2216684 236.97460938 286.1796875 C235.85441737 294.27589006 237.65926431 301.21146782 239.7890625 309.0234375 C240.1190625 310.30089844 240.4490625 311.57835937 240.7890625 312.89453125 C241.80984597 318.54393135 241.80984597 318.54393135 244.4140625 323.3984375 C244.84074219 322.59664063 245.26742187 321.79484375 245.70703125 320.96875 C253.32466696 307.11564753 262.51115394 294.2987857 272.98754883 282.45678711 C276.50518089 278.4595084 278.40805701 275.14344443 279.45703125 269.93359375 C279.73087646 268.62648438 279.73087646 268.62648438 280.01025391 267.29296875 C280.30295166 265.89111328 280.30295166 265.89111328 280.6015625 264.4609375 C287.20312896 234.56407493 299.0944006 207.6942744 320.4140625 185.3984375 C321.03539062 184.71394531 321.65671875 184.02945313 322.296875 183.32421875 C341.11860843 163.28182897 370.07759392 153.02911788 397.046875 152.11328125 C423.49744168 151.60003142 457.90002364 154.15000045 481.4140625 167.3984375 C483.5078125 169.4453125 483.5078125 169.4453125 484.4140625 172.3984375 C483.5499942 175.8457482 481.97225279 178.87402115 480.3515625 182.0234375 C479.66114868 183.41091187 479.66114868 183.41091187 478.95678711 184.82641602 C469.74385528 202.94502755 458.21608518 219.24000405 444.45703125 234.16796875 C442.57367252 236.22417876 440.77323619 238.32921976 438.9765625 240.4609375 C427.15653333 253.95412149 412.0488016 264.77856985 396.4140625 273.3984375 C395.79337891 273.74503418 395.17269531 274.09163086 394.53320312 274.44873047 C363.27331809 291.69025773 325.7387338 296.85590183 290.55493164 291.28271484 C287.6005175 291.44241291 286.55818044 292.62107105 284.5390625 294.7109375 C283.12789929 296.58000877 281.75884583 298.48105208 280.4140625 300.3984375 C279.43092695 301.69173295 278.44363173 302.9818725 277.453125 304.26953125 C271.39770105 312.25944085 265.96170673 320.5129816 260.9765625 329.2109375 C260.50508789 330.03303711 260.03361328 330.85513672 259.54785156 331.70214844 C258.61990954 333.36036048 257.71388482 335.03100973 256.82910156 336.71264648 C255.82876201 338.6113241 254.77852406 340.48410388 253.69433594 342.33618164 C248.60842763 351.76441448 249.1393742 358.99390584 250.5390625 369.2109375 C250.7143158 370.69296379 250.8862121 372.17539104 251.0546875 373.65820312 C251.46932517 377.24372134 251.92872594 380.8217181 252.4140625 384.3984375 C253.05843262 384.50913574 253.70280273 384.61983398 254.36669922 384.73388672 C257.34106153 385.24567941 260.31506183 385.75954768 263.2890625 386.2734375 C264.80886719 386.53447266 264.80886719 386.53447266 266.359375 386.80078125 C267.36484375 386.97480469 268.3703125 387.14882813 269.40625 387.328125 C270.41107422 387.49932861 271.41589844 387.67053223 272.45117188 387.84692383 C274.38963486 388.20775012 276.31979226 388.61742666 278.23632812 389.08081055 C283.21844811 390.39852626 283.21844811 390.39852626 288.0859375 389.30859375 C289.11460937 388.39400391 289.11460937 388.39400391 290.1640625 387.4609375 C307.89586109 373.43016853 328.38079536 370.57924588 350.4140625 372.3984375 C355.61050431 373.13929147 360.4897125 374.59471488 365.4140625 376.3984375 C366.31769531 376.69878906 367.22132813 376.99914062 368.15234375 377.30859375 C385.49275269 383.53819634 398.83050094 396.39345929 407.4140625 412.3984375 C407.77852983 413.72359879 408.11920231 415.05607154 408.4140625 416.3984375 C409.57679688 416.47320312 410.73953125 416.54796875 411.9375 416.625 C439.48653727 418.74103078 462.44756215 430.39092863 480.7265625 451.1484375 C489.6360146 462.38782856 495.6317679 474.60418662 499.4140625 488.3984375 C499.78144531 489.73648438 499.78144531 489.73648438 500.15625 491.1015625 C501.72694803 497.77165002 501.85666288 504.57415724 501.4140625 511.3984375 C499.62085352 513.19164648 497.18744312 512.5232178 494.79956508 512.53137308 C493.98426176 512.52903192 493.16895845 512.52669075 492.32894897 512.52427864 C491.46702415 512.52573208 490.60509932 512.52718552 489.71705556 512.52868301 C486.79100816 512.53237037 483.86501197 512.52884401 480.93896484 512.52542114 C478.83516602 512.52657188 476.7313674 512.52815909 474.6275692 512.53014839 C468.81695112 512.53434819 463.00634932 512.5322481 457.19573116 512.52916217 C450.94072798 512.52691092 444.68572771 512.5303863 438.4307251 512.53314209 C426.87549328 512.53734359 415.32026878 512.53696281 403.765037 512.53423062 C393.09179087 512.53171924 382.41854666 512.53105641 371.74530029 512.53225327 C370.6850658 512.53236784 370.6850658 512.53236784 369.60341243 512.53248474 C366.73449186 512.53279605 363.86557129 512.53311445 360.99665072 512.5334445 C334.0607955 512.5365064 307.12494362 512.53372544 280.18908891 512.5283476 C256.23608353 512.52360168 232.28308346 512.52402629 208.33007812 512.52880859 C181.44481385 512.53415833 154.55955253 512.53628929 127.6742878 512.53319633 C124.81046677 512.53287559 121.94664574 512.53256275 119.08282471 512.53225327 C118.37763189 512.53217419 117.67243906 512.53209511 116.94587676 512.53201364 C106.27696635 512.53087414 95.60805807 512.5322102 84.93914795 512.53473282 C72.81324839 512.53758557 60.68735648 512.53679443 48.56145716 512.53145207 C42.36805775 512.52881386 36.17466917 512.527812 29.98126984 512.53110123 C24.32142298 512.53406175 18.66159707 512.53247549 13.00175214 512.52712367 C10.94457751 512.52599844 8.88740114 512.52659299 6.83022761 512.52899946 C4.05318457 512.53200104 1.2762151 512.52896149 -1.50082397 512.52427864 C-2.72377895 512.52779039 -2.72377895 512.52779039 -3.97144008 512.53137308 C-9.47178716 512.51258784 -9.47178716 512.51258784 -10.5859375 511.3984375 C-12.91339184 488.50544402 -2.2227799 466.81335747 11.75390625 449.5 C29.29831898 429.19738948 52.8931668 418.50940566 79.4140625 416.3984375 C88.93538456 415.83624889 98.50946355 416.75718037 107.796875 418.96484375 C110.70907617 419.59867577 112.7686494 419.76961381 115.390625 418.26171875 C116.75946769 417.21262503 118.10447043 416.1317992 119.42578125 415.0234375 C127.43832817 408.47487263 138.39811621 405.82054999 148.578125 406.09765625 C152.70164448 406.53499922 156.60480787 407.51915277 160.58984375 408.64453125 C166.19870189 410.45861725 166.19870189 410.45861725 171.66015625 409.24609375 C172.74490234 408.36244141 172.74490234 408.36244141 173.8515625 407.4609375 C191.74895092 394.05125244 212.47057135 388.01819712 234.4140625 385.3984375 C234.00229541 360.87957914 229.19700738 336.1303538 222.88549805 312.51025391 C222.4140625 310.3984375 222.4140625 310.3984375 222.4140625 307.3984375 C221.74689209 307.35452881 221.07972168 307.31062012 220.39233398 307.26538086 C173.31626342 303.65047162 126.19771203 278.09153905 92.3203125 246.1171875 C89.94026445 243.89069094 87.52592565 241.75270632 85.0390625 239.6484375 C81.88569441 236.90723163 79.13660626 233.98711174 76.44140625 230.796875 C74.89317534 228.96524923 73.32505322 227.16550801 71.73046875 225.375 C63.9029339 216.52411387 56.95364036 207.23582215 50.4140625 197.3984375 C49.89730957 196.62177734 49.38055664 195.84511719 48.84814453 195.04492188 C27.90180515 163.19668656 13.63140298 128.00470218 3.4140625 91.3984375 C3.14400391 90.43518555 2.87394531 89.47193359 2.59570312 88.47949219 C-14.12679119 27.80367639 -14.12679119 27.80367639 -10.5859375 3.3984375 C-8.04037814 -0.56244101 -4.25413581 -0.03484158 0 0 Z " fill="#9A6E42" transform="translate(10.5859375,-0.3984375)"/>
<path d="M0 0 C0.76050156 -0.00418442 1.52100311 -0.00836884 2.30455017 -0.01268005 C4.79979549 -0.01901128 7.29392896 0.00002866 9.7890625 0.0234375 C10.64285492 0.02775787 11.49664734 0.03207825 12.37631226 0.03652954 C36.82890614 0.18155458 60.56545041 2.90383868 84.4140625 8.3984375 C85.14222168 8.56456543 85.87038086 8.73069336 86.62060547 8.90185547 C118.65627634 16.37869147 150.09595384 30.72007546 174.23046875 53.390625 C176.427511 55.46155596 176.427511 55.46155596 178.984375 57.42578125 C181.17019355 59.20044101 182.91579643 60.94267344 184.7265625 63.0859375 C187.16168475 65.96212928 189.66087098 68.76119875 192.20703125 71.5390625 C196.38968605 76.24243975 199.95475599 81.21003827 203.4140625 86.4609375 C204.02000244 87.3777832 204.62594238 88.29462891 205.25024414 89.23925781 C210.30985127 97.01660065 214.66093322 104.91945937 218.4140625 113.3984375 C218.7136084 114.06762207 219.0131543 114.73680664 219.32177734 115.42626953 C230.30090897 140.22144213 236.38185984 166.5020655 239.4140625 193.3984375 C239.50977539 194.22843262 239.60548828 195.05842773 239.70410156 195.91357422 C240.73689997 206.29523422 240.65497308 216.72615489 240.6640625 227.1484375 C240.66573425 228.15901215 240.66740601 229.16958679 240.66912842 230.21078491 C240.6711722 250.90960603 240.39346423 272.19938613 235.4140625 292.3984375 C233.63114238 289.72405732 232.84342822 287.95096538 231.92578125 284.9453125 C212.69080871 223.78920833 179.7469677 166.14396002 136.53515625 118.73828125 C134.60619915 116.61038935 132.72369897 114.45122891 130.8515625 112.2734375 C127.72867569 108.66672316 124.37123636 105.35195036 120.91796875 102.0625 C119.4140625 100.3984375 119.4140625 100.3984375 119.4140625 98.3984375 C118.60001953 98.07939453 118.60001953 98.07939453 117.76953125 97.75390625 C114.56925551 95.9122882 112.25233474 93.35754269 109.7265625 90.7109375 C101.46236957 82.01950534 101.46236957 82.01950534 91.1640625 76.2109375 C88.27475781 76.22690812 88.27475781 76.22690812 85.4765625 77.8984375 C83.09085105 80.26948089 83.09085105 80.26948089 83.3203125 83.59375 C84.83909079 88.87692878 87.78373742 91.23980366 91.8515625 94.7734375 C92.57786865 95.42900635 93.3041748 96.0845752 94.05249023 96.76000977 C96.15884285 98.65621854 98.28279575 100.53032227 100.4140625 102.3984375 C105.85756386 107.2110695 111.08705752 111.94678707 115.77734375 117.51171875 C117.37021975 119.347898 119.03918406 121.02512783 120.7890625 122.7109375 C124.50023652 126.36438215 127.72109645 130.34989796 130.98046875 134.40625 C133.02902296 136.92501809 135.12549882 139.38887566 137.25439453 141.83959961 C170.47156682 180.27592528 222.4140625 253.68437622 222.4140625 307.3984375 C174.58796753 304.250844 126.71031642 278.57534812 92.3203125 246.1171875 C89.94026445 243.89069094 87.52592565 241.75270632 85.0390625 239.6484375 C81.88569441 236.90723163 79.13660626 233.98711174 76.44140625 230.796875 C74.89317534 228.96524923 73.32505322 227.16550801 71.73046875 225.375 C63.9029339 216.52411387 56.95364036 207.23582215 50.4140625 197.3984375 C49.89730957 196.62177734 49.38055664 195.84511719 48.84814453 195.04492188 C27.90180515 163.19668656 13.63140298 128.00470218 3.4140625 91.3984375 C3.14400391 90.43518555 2.87394531 89.47193359 2.59570312 88.47949219 C-14.12679119 27.80367639 -14.12679119 27.80367639 -10.5859375 3.3984375 C-8.04037814 -0.56244101 -4.25413581 -0.03484158 0 0 Z " fill="#9BDC05" transform="translate(10.5859375,-0.3984375)"/>
<path d="M0 0 C2.09375 2.046875 2.09375 2.046875 3 5 C2.1359317 8.4473107 0.55819029 11.47558365 -1.0625 14.625 C-1.52277588 15.54998291 -1.98305176 16.47496582 -2.45727539 17.42797852 C-11.67020722 35.54659005 -23.19797732 51.84156655 -36.95703125 66.76953125 C-38.84038998 68.82574126 -40.64082631 70.93078226 -42.4375 73.0625 C-54.25752917 86.55568399 -69.3652609 97.38013235 -85 106 C-85.62068359 106.34659668 -86.24136719 106.69319336 -86.88085938 107.05029297 C-111.02484191 120.36701287 -136.36481526 125.34662821 -163.6875 125.375 C-164.5123288 125.37708466 -165.33715759 125.37916931 -166.1869812 125.38131714 C-175.31069682 125.37870481 -184.07673198 125.1483086 -193 123 C-190.94614261 119.3072881 -188.6986396 116.44195171 -185.71875 113.453125 C-184.88239014 112.61265625 -184.04603027 111.7721875 -183.18432617 110.90625 C-182.29849854 110.0296875 -181.4126709 109.153125 -180.5 108.25 C-179.59161377 107.34765625 -178.68322754 106.4453125 -177.74731445 105.515625 C-171.74384071 99.60080902 -165.68438261 94.13282518 -159 89 C-157.86541784 88.0688344 -156.73414107 87.13363272 -155.60546875 86.1953125 C-133.38889621 67.82914009 -107.65965838 54.63515261 -81.88964844 41.98706055 C-80.04233097 41.14212015 -80.04233097 41.14212015 -79 40 C-78.66143172 34.67326964 -78.66143172 34.67326964 -81 30 C-87.62432831 29.21381598 -92.20427728 30.9202122 -98.125 33.75 C-99.41772827 34.3529187 -99.41772827 34.3529187 -100.73657227 34.96801758 C-123.69756253 45.85232464 -145.20628304 59.05051733 -165 75 C-165.91523438 75.72316406 -166.83046875 76.44632812 -167.7734375 77.19140625 C-179.96788657 86.95744784 -191.0460545 97.88470342 -202 109 C-205.87107538 101.25784923 -197.46477379 82.52394041 -194.875 74.5 C-187.65555064 53.0903196 -176.59843996 34.31265425 -161 18 C-160.37867188 17.31550781 -159.75734375 16.63101563 -159.1171875 15.92578125 C-122.29527223 -23.28416618 -45.13465292 -25.43006804 0 0 Z " fill="#9BDC05" transform="translate(492,167)"/>
<path d="M0 0 C10.12498779 2.81461925 18.90090192 14.4729233 26.10546875 21.86328125 C28.71599931 24.48612564 31.33935655 27.09537905 33.97265625 29.6953125 C34.97528421 30.68877807 35.97788813 31.6822679 36.98046875 32.67578125 C37.47160156 33.15853516 37.96273437 33.64128906 38.46875 34.13867188 C66.54026754 62.02790684 88.83125097 96.56269652 108.10546875 130.86328125 C108.50701172 131.57242676 108.90855469 132.28157227 109.32226562 133.01220703 C128.3265842 166.75088652 143.09202547 205.36276867 151.265625 243.2265625 C151.71863315 246.65306762 151.71863315 246.65306762 153.10546875 247.86328125 C153.53214844 247.06148437 153.95882812 246.2596875 154.3984375 245.43359375 C160.15660368 234.96204206 166.86834028 225.36427396 174.10546875 215.86328125 C174.52570313 215.30882324 174.9459375 214.75436523 175.37890625 214.18310547 C181.91535301 205.69724024 189.56956282 198.19826087 197.10546875 190.61328125 C197.61421539 190.0990863 198.12296204 189.58489136 198.64712524 189.05511475 C205.46231647 182.18573998 212.51041338 175.87885393 220.10546875 169.86328125 C221.3489472 168.83907759 222.59017288 167.81212649 223.828125 166.78125 C233.15071949 159.11968769 242.9253944 152.33455203 253.10546875 145.86328125 C253.7392041 145.46012695 254.37293945 145.05697266 255.02587891 144.64160156 C296.13044326 118.74009526 296.13044326 118.74009526 309.10546875 120.86328125 C312.01007352 123.13250373 312.0840337 124.71323588 312.60546875 128.36328125 C312.10546875 131.86328125 312.10546875 131.86328125 309.91137695 133.91333008 C307.23264533 135.77490055 304.66839074 137.19690355 301.7109375 138.5625 C300.68129883 139.04444824 299.65166016 139.52639648 298.59082031 140.02294922 C297.5025293 140.52713379 296.41423828 141.03131836 295.29296875 141.55078125 C272.22986651 152.46168204 250.78356083 165.54298239 231.10546875 181.86328125 C230.55938965 182.30784668 230.01331055 182.75241211 229.45068359 183.21044922 C221.74071428 189.49738489 214.54101613 196.23096478 207.48046875 203.23828125 C206.70993164 203.99955322 205.93939453 204.7608252 205.14550781 205.54516602 C201.2757204 209.43681421 198.0472745 213.20542214 195.10546875 217.86328125 C193.28018102 220.21643965 191.37309262 222.50163665 189.48046875 224.80078125 C181.24021886 234.99213892 174.19445707 245.6810242 167.79296875 257.11328125 C167.3964209 257.82137939 166.99987305 258.52947754 166.59130859 259.2590332 C165.80829081 260.68798305 165.04458002 262.12766165 164.29931641 263.57666016 C163.4704194 265.16427761 162.58504548 266.72316441 161.65771484 268.25537109 C156.94096668 276.81995018 158.15712545 284.70363821 159.35546875 293.98828125 C159.62034029 296.25723532 159.87669016 298.52695978 160.12908936 300.79733276 C160.35953979 302.83160276 160.61134088 304.86342044 160.86425781 306.89501953 C160.94385742 307.8745459 161.02345703 308.85407227 161.10546875 309.86328125 C160.10546875 310.86328125 160.10546875 310.86328125 156.5078125 310.9609375 C155.01950008 310.95426345 153.53120443 310.94230308 152.04296875 310.92578125 C151.28435547 310.92126953 150.52574219 310.91675781 149.74414062 310.91210938 C147.86455004 310.90028805 145.98499976 310.88235203 144.10546875 310.86328125 C144.01048096 310.00500732 143.91549316 309.1467334 143.81762695 308.26245117 C140.81131238 281.45183449 136.53971538 255.08999989 130.10546875 228.86328125 C129.92580566 228.11916992 129.74614258 227.37505859 129.56103516 226.60839844 C114.75071398 166.24780836 80.77950695 109.0686623 41.10546875 61.86328125 C40.64817383 61.31575195 40.19087891 60.76822266 39.71972656 60.20410156 C33.17223815 52.37905443 26.43763668 44.96671604 19.10546875 37.86328125 C16.33609916 35.10766681 13.58330288 32.33610202 10.8359375 29.55859375 C9.65518666 28.36825272 8.47418967 27.17815581 7.29296875 25.98828125 C6.67784424 25.36622803 6.06271973 24.7441748 5.42895508 24.10327148 C2.17925829 20.84245292 -1.0991871 17.7950631 -4.70703125 14.92578125 C-7.41633587 12.6026842 -7.92734844 11.7767632 -9.26953125 8.23828125 C-8.89453125 4.86328125 -8.89453125 4.86328125 -6.33203125 1.86328125 C-2.89453125 -0.13671875 -2.89453125 -0.13671875 0 0 Z " fill="#83AA2D" transform="translate(101.89453125,75.13671875)"/>
<path d="M0 0 C0.98291016 0.00966797 1.96582031 0.01933594 2.97851562 0.02929688 C4.00267578 0.05443359 5.02683594 0.07957031 6.08203125 0.10546875 C7.11779297 0.11900391 8.15355469 0.13253906 9.22070312 0.14648438 C11.77916824 0.18185486 14.33658905 0.23121331 16.89453125 0.29296875 C16.16012817 1.11112061 16.16012817 1.11112061 15.41088867 1.94580078 C11.17669584 8.49990317 14.10487826 19.98106623 15.08203125 27.41796875 C15.21440186 28.44220947 15.34677246 29.4664502 15.4831543 30.52172852 C19.43006138 59.75454793 26.36688287 88.3977842 35.89453125 116.29296875 C36.17377441 117.11925781 36.45301758 117.94554688 36.74072266 118.796875 C48.9932732 154.70771428 66.85448933 188.86005803 90.89453125 218.29296875 C91.33941895 218.83937012 91.78430664 219.38577148 92.24267578 219.94873047 C103.17401898 233.28732327 115.14542385 245.83456931 128.89453125 256.29296875 C129.4241748 256.70434082 129.95381836 257.11571289 130.49951172 257.53955078 C158.28168573 279.06297192 189.99659239 293.50461423 223.89453125 302.29296875 C224.22453125 303.94296875 224.55453125 305.59296875 224.89453125 307.29296875 C177.06843628 304.14537525 129.19078517 278.46987937 94.80078125 246.01171875 C92.4207332 243.78522219 90.0063944 241.64723757 87.51953125 239.54296875 C84.36616316 236.80176288 81.61707501 233.88164299 78.921875 230.69140625 C77.37364409 228.85978048 75.80552197 227.06003926 74.2109375 225.26953125 C66.38340265 216.41864512 59.43410911 207.1303534 52.89453125 197.29296875 C52.37777832 196.51630859 51.86102539 195.73964844 51.32861328 194.93945312 C30.3822739 163.09121781 16.11187173 127.89923343 5.89453125 91.29296875 C5.62447266 90.3297168 5.35441406 89.36646484 5.07617188 88.37402344 C-11.64632244 27.69820764 -11.64632244 27.69820764 -8.10546875 3.29296875 C-5.74126615 0.07515954 -3.87761507 -0.06724188 0 0 Z " fill="#94C608" transform="translate(8.10546875,-0.29296875)"/>
<path d="M0 0 C-2.71031882 1.48437536 -4.95703192 2.30000332 -8.01953125 2.67578125 C-9.17026123 2.82974365 -9.17026123 2.82974365 -10.34423828 2.98681641 C-11.15876465 3.09429199 -11.97329102 3.20176758 -12.8125 3.3125 C-32.98100273 6.29772965 -50.81318158 14.30067406 -66 28 C-66.82628906 28.68449219 -67.65257812 29.36898437 -68.50390625 30.07421875 C-85.87453032 44.78080345 -101.41793653 69.02668224 -106.5625 91.25 C-109.06742296 99.51509143 -116.63822178 104.67698618 -122.92578125 110.15283203 C-126.07585513 112.9580885 -129.04199304 115.9323101 -132 118.9375 C-132.50982422 119.45183594 -133.01964844 119.96617187 -133.54492188 120.49609375 C-134.69910164 121.66160487 -135.84998341 122.83038086 -137 124 C-140.87107538 116.25784923 -132.46477379 97.52394041 -129.875 89.5 C-122.65555064 68.0903196 -111.59843996 49.31265425 -96 33 C-95.37867188 32.31550781 -94.75734375 31.63101563 -94.1171875 30.92578125 C-69.43516941 4.6430465 -34.1909752 -0.77471998 0 0 Z " fill="#94C608" transform="translate(427,152)"/>
<path d="M0 0 C0.99 0.99 0.99 0.99 2 2 C0.88625 2.20753906 -0.2275 2.41507812 -1.375 2.62890625 C-26.68827008 7.62564466 -49.31749779 20.22108263 -64.0234375 41.99609375 C-72.96583841 56.10780076 -80.17728972 72.20355101 -80.125 89.25 C-80.12757812 90.10078125 -80.13015625 90.9515625 -80.1328125 91.828125 C-80.13943723 94.04761434 -80.13943723 94.04761434 -79 96 C-82.64581687 96.02887512 -86.29160463 96.04675585 -89.9375 96.0625 C-91.49887695 96.07506836 -91.49887695 96.07506836 -93.09179688 96.08789062 C-94.08115234 96.09111328 -95.07050781 96.09433594 -96.08984375 96.09765625 C-97.46450806 96.10551147 -97.46450806 96.10551147 -98.86694336 96.11352539 C-101 96 -101 96 -102 95 C-104.32745434 72.10700652 -93.6368424 50.41491997 -79.66015625 33.1015625 C-60.54997282 10.98702284 -29.66836379 -3.4368803 0 0 Z " fill="#875E39" transform="translate(102,416)"/>
<path d="M0 0 C1.54715835 4.71721009 0.18018555 8.27925781 -1 13 C-3.97 12.67 -6.94 12.34 -10 12 C-7.49653351 7.14032976 -3.91447559 3.72143296 0 0 Z " fill="#94C709" transform="translate(309,278)"/>
</svg>
